<svg xmlns="http://www.w3.org/2000/svg" width="143.304" height="143.304" viewBox="0 0 143.304 143.304"><g transform="translate(-347.481 -153.48)"><g transform="translate(347.481 153.48)"><path d="M48.3,101.642h0a11.442,11.442,0,0,1-5.593-3.082L25,80.858l5.41-5.41,17.7,17.7c.059.059.121.117.183.172v8.32Zm5.427-.093h0v-8.6L71.42,75.256l5.41,5.41L58.937,98.56a11.468,11.468,0,0,1-5.21,2.989ZM21.167,77.021,3.083,58.937a11.467,11.467,0,0,1-2.99-5.211h8.6L26.577,71.611l-5.41,5.41h0Zm59.5-.191h0l-5.41-5.41L92.95,53.726h8.6a11.467,11.467,0,0,1-2.99,5.211L80.667,76.83ZM101.642,48.3H93.322c-.055-.062-.112-.123-.172-.183l-17.7-17.7L80.858,25l17.7,17.7a11.441,11.441,0,0,1,3.082,5.593Zm-93.322,0H0a11.442,11.442,0,0,1,3.083-5.593L20.976,24.813l5.41,5.41L8.493,48.116c-.059.059-.117.121-.172.183Zm63.29-21.722L53.726,8.692V.093a11.468,11.468,0,0,1,5.211,2.99L77.021,21.167l-5.41,5.41h0Zm-41.388-.191h0l-5.41-5.41L42.706,3.082A11.442,11.442,0,0,1,48.3,0V8.321c-.062.055-.124.112-.183.172L30.223,26.386Z" transform="translate(20.639 20.64)" fill="#fff"/><path d="M70.526,143.3V74.37L21.783,123.114l-1.592-1.592L68.934,72.778H0V70.526H68.934L20.19,21.783l1.592-1.592L70.526,68.934V0h2.252V68.934L121.521,20.19l1.592,1.592L74.37,70.526H143.3v2.252H74.37l48.743,48.743-1.592,1.592L72.778,74.37V143.3Z" transform="translate(0 0)" fill="#fff"/></g><rect width="43.932" height="43.932" rx="2" transform="translate(387.877 224.941) rotate(-45)" fill="#fff"/></g></svg>